<svg id="e9ZavzBy51H1" xmlns="http://www.w3.org/2000/svg" xmlns:xlink="http://www.w3.org/1999/xlink" viewBox="0 0 1366 768" shape-rendering="geometricPrecision" text-rendering="geometricPrecision">
<style><![CDATA[
#e9ZavzBy51H3_ts {animation: e9ZavzBy51H3_ts__ts 4000ms linear infinite normal forwards}@keyframes e9ZavzBy51H3_ts__ts { 0% {transform: translate(147.926452px,168.430062px) rotate(170.455982deg) scale(0.848483,0.882005)} 7.5% {transform: translate(147.926452px,168.430062px) rotate(170.455982deg) scale(0.848483,0.882005);animation-timing-function: cubic-bezier(0.68,-0.55,0.265,1.55)} 37% {transform: translate(147.926452px,168.430062px) rotate(170.455982deg) scale(0.787845,0.827518);animation-timing-function: cubic-bezier(0.68,-0.55,0.265,1.55)} 52% {transform: translate(147.926452px,168.430062px) rotate(170.455982deg) scale(0.787845,0.827518);animation-timing-function: cubic-bezier(0.68,-0.55,0.265,1.55)} 67.5% {transform: translate(147.926452px,168.430062px) rotate(170.455982deg) scale(0.848483,0.882005)} 100% {transform: translate(147.926452px,168.430062px) rotate(170.455982deg) scale(0.848483,0.882005)}} #e9ZavzBy51H6_ts {animation: e9ZavzBy51H6_ts__ts 4000ms linear infinite normal forwards}@keyframes e9ZavzBy51H6_ts__ts { 0% {transform: translate(1018.833111px,236.512569px) rotate(128.9467deg) scale(0.848483,0.882005)} 25% {transform: translate(1018.833111px,236.512569px) rotate(128.9467deg) scale(0.848483,0.882005)} 35% {transform: translate(1018.833111px,236.512569px) rotate(128.9467deg) scale(0.823733,0.859765)} 49.5% {transform: translate(1018.833111px,236.512569px) rotate(128.9467deg) scale(0.787845,0.827518)} 55% {transform: translate(1018.833111px,236.512569px) rotate(128.9467deg) scale(0.787845,0.827518)} 64.5% {transform: translate(1018.833111px,236.512569px) rotate(128.9467deg) scale(0.787845,0.827518)} 82% {transform: translate(1018.833111px,236.512569px) rotate(128.9467deg) scale(0.787845,0.827518)} 99.5% {transform: translate(1018.833111px,236.512569px) rotate(128.9467deg) scale(0.848483,0.882005)} 100% {transform: translate(1018.833111px,236.512569px) rotate(128.9467deg) scale(0.848483,0.882005)}} #e9ZavzBy51H9_tr {animation: e9ZavzBy51H9_tr__tr 4000ms linear infinite normal forwards}@keyframes e9ZavzBy51H9_tr__tr { 0% {transform: translate(1176.993047px,634.693768px) rotate(135deg)} 10% {transform: translate(1176.993047px,634.693768px) rotate(128.290164deg)} 20% {transform: translate(1176.993047px,634.693768px) rotate(116.195404deg)} 32.5% {transform: translate(1176.993047px,634.693768px) rotate(128.290164deg)} 47.5% {transform: translate(1176.993047px,634.693768px) rotate(135deg)} 100% {transform: translate(1176.993047px,634.693768px) rotate(135deg)}} #e9ZavzBy51H10 {animation: e9ZavzBy51H10_c_o 4000ms linear infinite normal forwards}@keyframes e9ZavzBy51H10_c_o { 0% {opacity: 1} 52.5% {opacity: 1} 62.5% {opacity: 0.83} 70% {opacity: 0.83} 75% {opacity: 0.72;animation-timing-function: cubic-bezier(0.895,0.03,0.685,0.22)} 77.5% {opacity: 0.62} 80% {opacity: 0.4} 82.5% {opacity: 0.83;animation-timing-function: cubic-bezier(0.895,0.03,0.685,0.22)} 90% {opacity: 0.83} 100% {opacity: 1}} #e9ZavzBy51H13_ts {animation: e9ZavzBy51H13_ts__ts 4000ms linear infinite normal forwards}@keyframes e9ZavzBy51H13_ts__ts { 0% {transform: translate(453.277063px,695.696737px) rotate(2.670739deg) scale(0.848483,0.882005)} 0.5% {transform: translate(453.277063px,695.696737px) rotate(2.670739deg) scale(0.848483,0.882005)} 25% {transform: translate(453.277063px,695.696737px) rotate(2.670739deg) scale(0.787845,0.827518)} 40% {transform: translate(453.277063px,695.696737px) rotate(2.670739deg) scale(0.787845,0.827518)} 57.5% {transform: translate(453.277063px,695.696737px) rotate(2.670739deg) scale(0.787845,0.827518)} 75% {transform: translate(453.277063px,695.696737px) rotate(2.670739deg) scale(0.848483,0.882005)} 100% {transform: translate(453.277063px,695.696737px) rotate(2.670739deg) scale(0.848483,0.882005)}}
]]></style>
<defs><radialGradient id="e9ZavzBy51H2-fill" cx="0" cy="0" r="0.5" spreadMethod="pad" gradientUnits="objectBoundingBox" gradientTransform="translate(0.5 0.5)"><stop id="e9ZavzBy51H2-fill-0" offset="0%" stop-color="#7016ec"/><stop id="e9ZavzBy51H2-fill-1" offset="51%" stop-color="#3600a3"/><stop id="e9ZavzBy51H2-fill-2" offset="100%" stop-color="#000e35"/></radialGradient></defs><rect width="1421.385397" height="798.598652" rx="0" ry="0" transform="matrix(.968209 0 0 0.963991-4.072052 0.000193)" fill="url(#e9ZavzBy51H2-fill)" stroke-width="0"/><g id="e9ZavzBy51H3_ts" transform="translate(147.926452,168.430062) rotate(170.455982) scale(0.848483,0.882005)"><polygon points="0,-24.988293 6.903243,-9.501498 23.765279,-7.721807 11.169681,3.629249 14.68775,20.215954 0,11.744498 -14.68775,20.215954 -11.169681,3.629249 -23.765279,-7.721807 -6.903243,-9.501498 0,-24.988293" transform="translate(0,0)" fill="#e1d6fd" stroke-width="0"/></g><polygon points="0,-12.324151 3.404658,-4.68611 11.720964,-3.808372 5.508853,1.789935 7.243954,9.970448 0,5.792351 -7.243954,9.970448 -5.508853,1.789935 -11.720964,-3.808372 -3.404658,-4.68611 0,-12.324151" transform="matrix(-1 0 0-1 513.542927 246.483017)" fill="#e1d6fd" stroke-width="0"/><polygon points="0,-7.813975 2.158681,-2.97117 7.431532,-2.414651 3.49282,1.134886 4.592939,6.321639 0,3.672569 -4.592939,6.321639 -3.49282,1.134886 -7.431532,-2.414651 -2.158681,-2.97117 0,-7.813975" transform="matrix(-1 0 0-1 1222.1816 579.735832)" fill="#e1d6fd" stroke-width="0"/><g id="e9ZavzBy51H6_ts" transform="translate(1018.833111,236.512569) rotate(128.9467) scale(0.848483,0.882005)"><polygon points="0,-36.386494 10.052099,-13.835527 34.605612,-11.244045 16.264638,5.284701 21.387444,29.437292 0,17.101652 -21.387444,29.437292 -16.264638,5.284701 -34.605612,-11.244045 -10.052099,-13.835527 0,-36.386494" transform="translate(0,0)" fill="#e1d6fd" stroke-width="0"/></g><polygon points="0,-10.270126 2.837215,-3.905092 9.76747,-3.173644 4.590711,1.491612 6.036628,8.308706 0,4.826959 -6.036628,8.308706 -4.590711,1.491612 -9.76747,-3.173644 -2.837215,-3.905092 0,-10.270126" transform="matrix(-1 0 0-1 953.104307 441.615405)" fill="#e1d6fd" stroke-width="0"/><polygon points="0,-9.18588 2.537683,-3.49282 8.736291,-2.838593 4.106057,1.334139 5.399325,7.431533 0,4.317364 -5.399325,7.431533 -4.106057,1.334139 -8.736291,-2.838593 -2.537683,-3.49282 0,-9.18588" transform="matrix(-.984935 0.172928-.172928-.984935 462.192298 482.695908)" fill="#e1d6fd" stroke-width="0"/><g id="e9ZavzBy51H9_tr" transform="translate(1176.993047,634.693768) rotate(135)"><polygon points="0,-8.714492 2.407457,-3.313581 8.287974,-2.692926 3.895348,1.265675 5.12225,7.050172 0,4.095811 -5.12225,7.050172 -3.895348,1.265675 -8.287974,-2.692926 -2.407457,-3.313581 0,-8.714492" transform="translate(0,0)" fill="#e1d6fd" stroke-width="0"/></g><polygon id="e9ZavzBy51H10" points="0,-14.52415 4.012428,-5.522633 13.813288,-4.488209 6.492245,2.109459 8.537082,11.750285 0,6.826351 -8.537082,11.750285 -6.492245,2.109459 -13.813288,-4.488209 -4.012428,-5.522633 0,-14.52415" transform="matrix(-.548574-.836102 0.836102-.548574 1337.207008 110.917358)" fill="#e1d6fd" stroke-width="0"/><polygon points="0,-17.995473 4.971413,-6.842562 17.114712,-5.560907 8.043915,2.613627 10.577474,14.558644 0,8.457873 -10.577474,14.558644 -8.043915,2.613627 -17.114712,-5.560907 -4.971413,-6.842562 0,-17.995473" transform="matrix(-.456565 0.88969-.88969-.456565 128.592575 503.236159)" fill="#e1d6fd" stroke-width="0"/><polygon points="0,-9.928237 2.742765,-3.775093 9.442314,-3.067994 4.437888,1.441957 5.835671,8.032112 0,4.666271 -5.835671,8.032112 -4.437888,1.441957 -9.442314,-3.067994 -2.742765,-3.775093 0,-9.928237" transform="matrix(-.561394-.827549 0.827549-.561394 267.05991 629.421711)" fill="#e1d6fd" stroke-width="0"/><g id="e9ZavzBy51H13_ts" transform="translate(453.277063,695.696737) rotate(2.670739) scale(0.848483,0.882005)"><polygon points="0,-136.599999 37.736989,-51.940509 129.91432,-42.211721 61.05973,19.839509 80.291465,110.511721 0,64.202 -80.291465,110.511721 -61.05973,19.839509 -129.91432,-42.211721 -37.736989,-51.940509 0,-136.599999" transform="translate(0,0)" fill="#e1d6fd" stroke-width="0"/></g></svg>
